# Blender v2.93.5 OBJ File: 'mapa_1.blend'
# www.blender.org
mtllib mapa_1.mtl
o Cube_Cube.001
v -6.249035 -1.003059 2.022153
v -6.249035 0.003059 2.022153
v -6.249035 -1.003059 -12.022154
v -6.249035 0.003059 -12.022154
v 6.249035 -1.003059 2.022153
v 6.249035 0.003059 2.022153
v 6.249035 -1.003059 -12.022154
v 6.249035 0.003059 -12.022154
v -6.249035 -1.003059 -12.022154
v -6.249035 -1.003059 2.022153
v 6.249035 -1.003059 -12.022154
v 6.249035 -1.003059 2.022153
vt 0.662410 0.133305
vt 0.993071 0.133305
vt 0.993071 0.197791
vt 0.662409 0.197791
vt 0.330879 0.125845
vt 0.330879 0.205251
vt 0.000217 0.205251
vt 0.000217 0.125845
vt 0.000146 0.643687
vt 0.000146 0.599602
vt 0.330950 0.599602
vt 0.330950 0.643687
vt 0.331313 0.190565
vt 0.331313 0.140531
vt 0.661975 0.140531
vt 0.661975 0.190565
vt 0.993505 0.359882
vt 0.993505 0.000217
vt 0.999783 0.000217
vt 0.999783 0.359882
vt 0.330879 0.993071
vt 0.000217 0.993071
vt 0.000217 0.662410
vt 0.330879 0.662410
vt 0.331313 0.331313
vt 0.661975 0.331313
vt 0.661975 0.661975
vt 0.331313 0.661975
vt 0.993071 0.331313
vt 0.993071 0.690978
vt 0.986794 0.690978
vt 0.986794 0.331313
vt 0.691033 0.668688
vt 0.331313 0.668687
vt 0.331313 0.662410
vt 0.691033 0.662410
vt 0.331313 0.669122
vt 0.691033 0.669122
vt 0.691033 0.675400
vt 0.331313 0.675400
vn -1.0000 0.0000 0.0000
vn 0.0000 0.0000 -1.0000
vn 1.0000 0.0000 0.0000
vn 0.0000 0.0000 1.0000
vn 0.0000 1.0000 0.0000
vn 0.0000 -1.0000 0.0000
usemtl Colorpiso
s off
f 1/1/1 2/2/1 4/3/1 3/4/1
f 3/5/2 4/6/2 8/7/2 7/8/2
f 7/9/3 8/10/3 6/11/3 5/12/3
f 5/13/4 6/14/4 2/15/4 1/16/4
f 5/17/4 1/18/4 10/19/4 12/20/4
f 8/21/5 4/22/5 2/23/5 6/24/5
f 9/25/6 11/26/6 12/27/6 10/28/6
f 3/29/4 7/30/4 11/31/4 9/32/4
f 1/33/4 3/34/4 9/35/4 10/36/4
f 7/37/4 5/38/4 12/39/4 11/40/4
o Cube.001_Cube.002
v -2.480823 -1.003059 -13.898478
v -2.480823 0.003059 -13.898478
v -2.480823 -1.003059 -34.101524
v -2.480823 0.003059 -34.101524
v 2.480823 -1.003059 -13.898478
v 2.480823 0.003059 -13.898478
v 2.480823 -1.003059 -34.101524
v 2.480823 0.003059 -34.101524
v -2.480823 -1.003059 -34.101524
v -2.480823 -1.003059 -13.898478
v 2.480823 -1.003059 -34.101524
v 2.480823 -1.003059 -13.898478
vt 0.375000 0.000000
vt 0.625000 0.000000
vt 0.625000 0.250000
vt 0.375000 0.250000
vt 0.625000 0.500000
vt 0.375000 0.500000
vt 0.625000 0.750000
vt 0.375000 0.750000
vt 0.625000 1.000000
vt 0.375000 1.000000
vt 0.375000 1.000000
vt 0.375000 0.750000
vt 0.750000 0.895285
vt 1.000000 0.895285
vt 1.000000 0.104715
vt 0.750000 0.104715
vt 0.125000 0.500000
vt 0.375000 0.500000
vt 0.125000 0.750000
vt 0.375000 0.250000
vt 0.375000 0.000000
vn -1.0000 0.0000 0.0000
vn 0.0000 0.0000 -1.0000
vn 1.0000 0.0000 0.0000
vn 0.0000 0.0000 1.0000
vn 0.0000 1.0000 0.0000
vn 0.0000 -1.0000 0.0000
usemtl Colorpiso
s off
f 13/41/7 14/42/7 16/43/7 15/44/7
f 15/44/8 16/43/8 20/45/8 19/46/8
f 19/46/9 20/45/9 18/47/9 17/48/9
f 17/48/10 18/47/10 14/49/10 13/50/10
f 17/48/10 13/50/10 22/51/10 24/52/10
f 20/53/11 16/54/11 14/55/11 18/56/11
f 21/57/12 23/58/12 24/52/12 22/59/12
f 15/44/10 19/46/10 23/58/10 21/60/10
f 13/41/10 15/44/10 21/60/10 22/61/10
f 19/46/10 17/48/10 24/52/10 23/58/10
o Cube.002_Cube.003
v -2.480823 -0.980729 -34.503773
v -2.480823 -0.020016 -34.204933
v -2.480823 5.020016 -53.795067
v -2.480823 5.980729 -53.496227
v 2.480823 -0.980729 -34.503773
v 2.480823 -0.020016 -34.204933
v 2.480823 5.020016 -53.795067
v 2.480823 5.980729 -53.496227
v -2.480823 5.020016 -53.795067
v -2.480823 -0.980729 -34.503773
v 2.480823 5.020016 -53.795067
v 2.480823 -0.980729 -34.503773
vt 0.375000 0.000000
vt 0.625000 0.000000
vt 0.625000 0.250000
vt 0.375000 0.250000
vt 0.625000 0.500000
vt 0.375000 0.500000
vt 0.625000 0.750000
vt 0.375000 0.750000
vt 0.625000 1.000000
vt 0.375000 1.000000
vt 0.375000 1.000000
vt 0.375000 0.750000
vt 0.625000 0.098666
vt 0.875000 0.098666
vt 0.875000 0.901334
vt 0.625000 0.901334
vt 0.187500 0.073611
vt 0.437500 0.073611
vt 0.437500 0.926389
vt 0.187500 0.926389
vt 0.375000 0.500000
vt 0.375000 0.250000
vt 0.375000 0.000000
vn -1.0000 -0.0000 0.0000
vn 0.0000 0.2970 -0.9549
vn 1.0000 0.0000 0.0000
vn 0.0000 -0.2970 0.9549
vn 0.0000 0.0000 1.0000
vn 0.0000 0.9549 0.2970
vn 0.0000 -0.9549 -0.2970
usemtl Colorpiso
s off
f 25/62/13 26/63/13 28/64/13 27/65/13
f 27/65/14 28/64/14 32/66/14 31/67/14
f 31/67/15 32/66/15 30/68/15 29/69/15
f 29/69/16 30/68/16 26/70/16 25/71/16
f 29/69/17 25/71/17 34/72/17 36/73/17
f 32/74/18 28/75/18 26/76/18 30/77/18
f 33/78/19 35/79/19 36/80/19 34/81/19
f 27/65/17 31/67/17 35/82/17 33/83/17
f 25/62/17 27/65/17 33/83/17 34/84/17
f 31/67/17 29/69/17 36/73/17 35/82/17
o Cube.003_Cube.004
v -2.480823 4.996941 -55.388992
v -2.480823 6.003059 -55.388992
v -2.480823 4.996941 -58.611008
v -2.480823 6.003059 -58.611008
v 2.480823 4.996941 -55.388992
v 2.480823 6.003059 -55.388992
v 2.480823 4.996941 -58.611008
v 2.480823 6.003059 -58.611008
v -2.480823 4.996941 -58.611008
v -2.480823 4.996941 -55.388992
v 2.480823 4.996941 -58.611008
v 2.480823 4.996941 -55.388992
vt 0.375000 0.000000
vt 0.625000 0.000000
vt 0.625000 0.250000
vt 0.375000 0.250000
vt 0.625000 0.500000
vt 0.375000 0.500000
vt 0.625000 0.750000
vt 0.375000 0.750000
vt 0.625000 1.000000
vt 0.375000 1.000000
vt 0.375000 1.000000
vt 0.375000 0.750000
vt 0.875000 0.500000
vt 0.875000 0.750000
vt 0.125000 0.500000
vt 0.375000 0.500000
vt 0.125000 0.750000
vt 0.375000 0.250000
vt 0.375000 0.000000
vn -1.0000 0.0000 0.0000
vn 0.0000 0.0000 -1.0000
vn 1.0000 0.0000 0.0000
vn 0.0000 0.0000 1.0000
vn 0.0000 1.0000 0.0000
vn 0.0000 -1.0000 0.0000
usemtl Colorpiso
s off
f 37/85/20 38/86/20 40/87/20 39/88/20
f 39/88/21 40/87/21 44/89/21 43/90/21
f 43/90/22 44/89/22 42/91/22 41/92/22
f 41/92/23 42/91/23 38/93/23 37/94/23
f 41/92/23 37/94/23 46/95/23 48/96/23
f 44/89/24 40/97/24 38/98/24 42/91/24
f 45/99/25 47/100/25 48/96/25 46/101/25
f 39/88/23 43/90/23 47/100/23 45/102/23
f 37/85/23 39/88/23 45/102/23 46/103/23
f 43/90/23 41/92/23 48/96/23 47/100/23
o Cube.004_Cube.005
v -2.480823 4.996941 -60.388992
v -2.480823 6.003059 -60.388992
v -2.480823 4.996941 -63.611008
v -2.480823 6.003059 -63.611008
v 2.480823 4.996941 -60.388992
v 2.480823 6.003059 -60.388992
v 2.480823 4.996941 -63.611008
v 2.480823 6.003059 -63.611008
v -2.480823 4.996941 -63.611008
v -2.480823 4.996941 -60.388992
v 2.480823 4.996941 -63.611008
v 2.480823 4.996941 -60.388992
vt 0.375000 0.000000
vt 0.625000 0.000000
vt 0.625000 0.250000
vt 0.375000 0.250000
vt 0.625000 0.500000
vt 0.375000 0.500000
vt 0.625000 0.750000
vt 0.375000 0.750000
vt 0.625000 1.000000
vt 0.375000 1.000000
vt 0.375000 1.000000
vt 0.375000 0.750000
vt 0.875000 0.500000
vt 0.875000 0.750000
vt 0.125000 0.500000
vt 0.375000 0.500000
vt 0.125000 0.750000
vt 0.375000 0.250000
vt 0.375000 0.000000
vn -1.0000 0.0000 0.0000
vn 0.0000 0.0000 -1.0000
vn 1.0000 0.0000 0.0000
vn 0.0000 0.0000 1.0000
vn 0.0000 1.0000 0.0000
vn 0.0000 -1.0000 0.0000
usemtl Colorpiso
s off
f 49/104/26 50/105/26 52/106/26 51/107/26
f 51/107/27 52/106/27 56/108/27 55/109/27
f 55/109/28 56/108/28 54/110/28 53/111/28
f 53/111/29 54/110/29 50/112/29 49/113/29
f 53/111/29 49/113/29 58/114/29 60/115/29
f 56/108/30 52/116/30 50/117/30 54/110/30
f 57/118/31 59/119/31 60/115/31 58/120/31
f 51/107/29 55/109/29 59/119/29 57/121/29
f 49/104/29 51/107/29 57/121/29 58/122/29
f 55/109/29 53/111/29 60/115/29 59/119/29
o Cube.005_Cube.006
v -2.480823 4.996941 -66.388992
v -2.480823 6.003059 -66.388992
v -2.480823 4.996941 -69.611008
v -2.480823 6.003059 -69.611008
v 2.480823 4.996941 -66.388992
v 2.480823 6.003059 -66.388992
v 2.480823 4.996941 -69.611008
v 2.480823 6.003059 -69.611008
v -2.480823 4.996941 -69.611008
v -2.480823 4.996941 -66.388992
v 2.480823 4.996941 -69.611008
v 2.480823 4.996941 -66.388992
vt 0.375000 0.000000
vt 0.625000 0.000000
vt 0.625000 0.250000
vt 0.375000 0.250000
vt 0.625000 0.500000
vt 0.375000 0.500000
vt 0.625000 0.750000
vt 0.375000 0.750000
vt 0.625000 1.000000
vt 0.375000 1.000000
vt 0.375000 1.000000
vt 0.375000 0.750000
vt 0.875000 0.500000
vt 0.875000 0.750000
vt 0.125000 0.500000
vt 0.375000 0.500000
vt 0.125000 0.750000
vt 0.375000 0.250000
vt 0.375000 0.000000
vn -1.0000 0.0000 0.0000
vn 0.0000 0.0000 -1.0000
vn 1.0000 0.0000 0.0000
vn 0.0000 0.0000 1.0000
vn 0.0000 1.0000 0.0000
vn 0.0000 -1.0000 0.0000
usemtl Colorpiso
s off
f 61/123/32 62/124/32 64/125/32 63/126/32
f 63/126/33 64/125/33 68/127/33 67/128/33
f 67/128/34 68/127/34 66/129/34 65/130/34
f 65/130/35 66/129/35 62/131/35 61/132/35
f 65/130/35 61/132/35 70/133/35 72/134/35
f 68/127/36 64/135/36 62/136/36 66/129/36
f 69/137/37 71/138/37 72/134/37 70/139/37
f 63/126/35 67/128/35 71/138/35 69/140/35
f 61/123/35 63/126/35 69/140/35 70/141/35
f 67/128/35 65/130/35 72/134/35 71/138/35
o Cube.006_Cube.007
v -2.480823 4.996941 -74.388992
v -2.480823 6.003059 -74.388992
v -2.480823 4.996941 -77.611008
v -2.480823 6.003059 -77.611008
v 2.480823 4.996941 -74.388992
v 2.480823 6.003059 -74.388992
v 2.480823 4.996941 -77.611008
v 2.480823 6.003059 -77.611008
v -2.480823 4.996941 -77.611008
v -2.480823 4.996941 -74.388992
v 2.480823 4.996941 -77.611008
v 2.480823 4.996941 -74.388992
vt 0.375000 0.000000
vt 0.625000 0.000000
vt 0.625000 0.250000
vt 0.375000 0.250000
vt 0.625000 0.500000
vt 0.375000 0.500000
vt 0.625000 0.750000
vt 0.375000 0.750000
vt 0.625000 1.000000
vt 0.375000 1.000000
vt 0.375000 1.000000
vt 0.375000 0.750000
vt 0.875000 0.500000
vt 0.875000 0.750000
vt 0.125000 0.500000
vt 0.375000 0.500000
vt 0.125000 0.750000
vt 0.375000 0.250000
vt 0.375000 0.000000
vn -1.0000 0.0000 0.0000
vn 0.0000 0.0000 -1.0000
vn 1.0000 0.0000 0.0000
vn 0.0000 0.0000 1.0000
vn 0.0000 1.0000 0.0000
vn 0.0000 -1.0000 0.0000
usemtl Colorpiso
s off
f 73/142/38 74/143/38 76/144/38 75/145/38
f 75/145/39 76/144/39 80/146/39 79/147/39
f 79/147/40 80/146/40 78/148/40 77/149/40
f 77/149/41 78/148/41 74/150/41 73/151/41
f 77/149/41 73/151/41 82/152/41 84/153/41
f 80/146/42 76/154/42 74/155/42 78/148/42
f 81/156/43 83/157/43 84/153/43 82/158/43
f 75/145/41 79/147/41 83/157/41 81/159/41
f 73/142/41 75/145/41 81/159/41 82/160/41
f 79/147/41 77/149/41 84/153/41 83/157/41
o Cube.007_Cube.008
v -2.480823 4.996941 -81.388992
v -2.480823 6.003059 -81.388992
v -2.480823 4.996941 -84.611008
v -2.480823 6.003059 -84.611008
v 2.480823 4.996941 -81.388992
v 2.480823 6.003059 -81.388992
v 2.480823 4.996941 -84.611008
v 2.480823 6.003059 -84.611008
v -2.480823 4.996941 -84.611008
v -2.480823 4.996941 -81.388992
v 2.480823 4.996941 -84.611008
v 2.480823 4.996941 -81.388992
vt 0.375000 0.000000
vt 0.625000 0.000000
vt 0.625000 0.250000
vt 0.375000 0.250000
vt 0.625000 0.500000
vt 0.375000 0.500000
vt 0.625000 0.750000
vt 0.375000 0.750000
vt 0.625000 1.000000
vt 0.375000 1.000000
vt 0.375000 1.000000
vt 0.375000 0.750000
vt 0.875000 0.500000
vt 0.875000 0.750000
vt 0.125000 0.500000
vt 0.375000 0.500000
vt 0.125000 0.750000
vt 0.375000 0.250000
vt 0.375000 0.000000
vn -1.0000 0.0000 0.0000
vn 0.0000 0.0000 -1.0000
vn 1.0000 0.0000 0.0000
vn 0.0000 0.0000 1.0000
vn 0.0000 1.0000 0.0000
vn 0.0000 -1.0000 0.0000
usemtl Colorpiso
s off
f 85/161/44 86/162/44 88/163/44 87/164/44
f 87/164/45 88/163/45 92/165/45 91/166/45
f 91/166/46 92/165/46 90/167/46 89/168/46
f 89/168/47 90/167/47 86/169/47 85/170/47
f 89/168/47 85/170/47 94/171/47 96/172/47
f 92/165/48 88/173/48 86/174/48 90/167/48
f 93/175/49 95/176/49 96/172/49 94/177/49
f 87/164/47 91/166/47 95/176/47 93/178/47
f 85/161/47 87/164/47 93/178/47 94/179/47
f 91/166/47 89/168/47 96/172/47 95/176/47
o Cube.008_Cube.009
v -15.919170 4.996941 -89.176666
v -15.919170 6.003059 -89.176666
v -15.919170 4.996941 -112.823334
v -15.919170 6.003059 -112.823334
v 15.919170 4.996941 -89.176666
v 15.919170 6.003059 -89.176666
v 15.919170 4.996941 -112.823334
v 15.919170 6.003059 -112.823334
v -15.919170 4.996941 -112.823334
v -15.919170 4.996941 -89.176666
v 15.919170 4.996941 -112.823334
v 15.919170 4.996941 -89.176666
vt 0.375000 0.000000
vt 0.625000 0.000000
vt 0.625000 0.250000
vt 0.375000 0.250000
vt 0.625000 0.500000
vt 0.375000 0.500000
vt 0.625000 0.750000
vt 0.375000 0.750000
vt 0.625000 1.000000
vt 0.375000 1.000000
vt 0.375000 1.000000
vt 0.375000 0.750000
vt 0.875000 0.500000
vt 0.875000 0.750000
vt 0.125000 0.500000
vt 0.375000 0.500000
vt 0.125000 0.750000
vt 0.375000 0.250000
vt 0.375000 0.000000
vn -1.0000 0.0000 0.0000
vn 0.0000 0.0000 -1.0000
vn 1.0000 0.0000 0.0000
vn 0.0000 0.0000 1.0000
vn 0.0000 1.0000 0.0000
vn 0.0000 -1.0000 0.0000
usemtl Colorpiso
s off
f 97/180/50 98/181/50 100/182/50 99/183/50
f 99/183/51 100/182/51 104/184/51 103/185/51
f 103/185/52 104/184/52 102/186/52 101/187/52
f 101/187/53 102/186/53 98/188/53 97/189/53
f 101/187/53 97/189/53 106/190/53 108/191/53
f 104/184/54 100/192/54 98/193/54 102/186/54
f 105/194/55 107/195/55 108/191/55 106/196/55
f 99/183/53 103/185/53 107/195/53 105/197/53
f 97/180/53 99/183/53 105/197/53 106/198/53
f 103/185/53 101/187/53 108/191/53 107/195/53
